<?xml version="1.0" standalone="yes"?>
<svg xmlns="http://www.w3.org/2000/svg" width="48" height="48">
<path style="fill:#ffffff; stroke:none;" d="M0 0L0 48C3.13134 40.5543 4 29.0862 4 21C4 16.7996 2.69145 9.7741 5.60339 6.3179C7.71123 3.81611 11.0638 4.13066 14 3.83102C21.2795 3.08814 27.7361 3.39812 35 3.9105C38.5661 4.16204 42.842 3.5504 44.9722 7.14815C46.7391 10.1322 46 14.6812 46 18C46 25.0646 46.855 31.9765 47 39C48.6611 35.0414 48 30.2603 48 26L48 0L0 0z"/>
<path style="fill:#7dc2ff; stroke:none;" d="M16 3C20.7238 4.9822 26.9098 4 32 4C27.2762 2.0178 21.0902 3 16 3z"/>
<path style="fill:#70b5fd; stroke:none;" d="M4 9L9 5C5.8211 4.32746 4.86758 6.11474 4 9z"/>
<path style="fill:#61a6ee; stroke:none;" d="M9 4C15.4448 6.70437 25.0323 5 32 5C25.5552 2.29563 15.9678 4 9 4z"/>
<path style="fill:#508de4; stroke:none;" d="M32 4C34.8897 5.21294 37.8741 4.99828 41 5C38.1103 3.78705 35.1259 4.00172 32 4z"/>
<path style="fill:#68a4fe; stroke:none;" d="M41 4C42.588 5.62666 44.0781 6.77387 46 8C44.6274 5.45266 43.7817 4.81245 41 4z"/>
<path style="fill:#458ad2; stroke:none;" d="M5 31C9.8379 27.5921 15.1133 22.9676 18.412 18C19.7265 16.0206 20.0581 13.3136 21.7377 11.5988C24.5578 8.71934 28.3171 8.52205 31 5L14 5.00077C11.5818 5.01742 8.47434 4.73245 6.60339 6.6034C4.73245 8.47435 5.01742 11.5818 5.00077 14L5 31z"/>
<path style="fill:#2d68c5; stroke:none;" d="M27 10L33 10L33 16L26 16L26 20L33 20C31.4776 23.7562 30.0571 25.3557 26 26L26 34L45 34C45 26.7521 47.3099 14.8207 44.3966 8.14815C41.3182 1.09755 30.1396 5.87901 27 10z"/>
<path style="fill:#4882e0; stroke:none;" d="M45 8L45 34C47.477 28.097 47.477 13.903 45 8z"/>
<path style="fill:#61a6ee; stroke:none;" d="M4 9L4 32C6.28382 26.5574 6.28383 14.4426 4 9z"/>
<path style="fill:#507f8c; stroke:none;" d="M21 10C24.6975 11.5515 29.0168 11 33 11C29.3025 9.44847 24.9832 10 21 10z"/>
<path style="fill:#ffffff; stroke:none;" d="M20 21L17 21L17 25L20 25L20 40L26 40L26 25C29.4098 24.7374 30.9011 24.3213 32 21L26 21L26 15L33 15L33 11C23.8744 11 20.029 10.885 20 21z"/>
<path style="fill:#b8ccd3; stroke:none;" d="M20 12L21 13L20 12z"/>
<path style="fill:#98c1e9; stroke:none;" d="M26 15C28.3316 15.9845 30.4567 15.9813 33 16C30.6684 15.0155 28.5433 15.0187 26 15z"/>
<path style="fill:#3573c9; stroke:none;" d="M19 17C17.8137 18.1863 17.4721 18.5838 17 20C19.2508 19.5268 20.1178 19.1397 19 17z"/>
<path style="fill:#3471c8; stroke:none;" d="M16 20C11.7858 24.2142 6.65033 28.1203 5 34L20 34L20 26L17 26C16.9528 23.7472 16.8742 22.0521 16 20z"/>
<path style="fill:#507f8c; stroke:none;" d="M17 20C18.2484 20.6848 18.5484 20.7488 20 21C18.7516 20.3152 18.4516 20.2512 17 20M26 20C28.3316 20.9845 30.4567 20.9813 33 21C30.6684 20.0155 28.5433 20.0187 26 20z"/>
<path style="fill:#a7c4e4; stroke:none;" d="M32 21L33 22L32 21z"/>
<path style="fill:#7da7d8; stroke:none;" d="M31 24L32 25L31 24z"/>
<path style="fill:#98c1e9; stroke:none;" d="M17 25C18.2484 25.6848 18.5484 25.7488 20 26C18.7516 25.3152 18.4516 25.2512 17 25z"/>
<path style="fill:#97bfe8; stroke:none;" d="M26 25C27.769 25.7789 29.0359 25.9124 31 26C29.231 25.2211 27.9641 25.0876 26 25z"/>
<path style="fill:#f1f1f1; stroke:none;" d="M21 30L21 37L25 37L25 30L21 30z"/>
<path style="fill:#4a92d5; stroke:none;" d="M2 32L2 39L20 39L20 34C13.5509 34 8.21261 33.4599 2 32M46 32C41.0454 35.7536 32.0293 34 26 34L26 39C32.6593 39 39.4868 38.4493 46 40C46.8644 37.0604 47.1879 34.8519 46 32z"/>
<path style="fill:#d7d7d7; stroke:none;" d="M21 37L21 39L25 39L25 37L21 37z"/>
<path style="fill:#000000; stroke:none;" d="M1 39L1 48L48 48L48 39L46 39L46 44L4 44L4 39L1 39z"/>
<path style="fill:#4b87e2; stroke:none;" d="M4 39C8.72382 40.9822 14.9098 40 20 40C15.2762 38.0178 9.09016 39 4 39z"/>
<path style="fill:#457dde; stroke:none;" d="M26 39C31.4692 41.295 39.0987 40 45 40C39.5308 37.705 31.9013 39 26 39z"/>
<path style="fill:#003366; stroke:none;" d="M4 40L4 44L26 44C20.7473 38.0477 11.3016 40 4 40z"/>
<path style="fill:#2b5580; stroke:none;" d="M22 40C28.1431 45.9871 38.0188 44 46 44L46 40L22 40z"/>
</svg>
