<?xml version="1.0" standalone="yes"?>
<svg xmlns="http://www.w3.org/2000/svg" width="128" height="128">
<path style="fill:#010101; stroke:none;" d="M0 0L0 128L128 128L128 0L0 0z"/>
<path style="fill:#017bb9; stroke:none;" d="M5 7L5 123L121 123L121 7L5 7z"/>
<path style="fill:#010101; stroke:none;" d="M39.1088 35.7461C32.046 38.6795 37.3898 48.6617 43.956 46.3773C52.3458 43.4585 46.9229 32.5007 39.1088 35.7461z"/>
<path style="fill:#0101ff; stroke:none;" d="M35 42L36 43L35 42M37 45L38 46L37 45z"/>
<path style="fill:#010101; stroke:none;" d="M36 53L36 91L48 91L48 53L36 53M56 53L56 91L68 91C68 84.155 66.2365 74.4409 68.7423 68.0046C70.1303 64.4393 73.9029 61.2479 77.892 62.7616C80.876 63.8939 82.1426 67.0922 82.6705 70.0008C83.8871 76.7032 83 84.2008 83 91L95 91C95 78.9793 99.0684 53.3341 81 53.0193C78.6104 52.9776 76.1866 53.1046 74.0046 54.1744C71.6681 55.32 69.8622 57.2397 68 59L68 53L56 53z"/>
<path style="fill:#0101ff; stroke:none;" d="M80 63L81 64L80 63z"/>
</svg>
